<?xml version="1.0" encoding="UTF-8"?>
<svg id="Layer_2" data-name="Layer 2" xmlns="http://www.w3.org/2000/svg" viewBox="0 0 45.33 100.18">
  <defs>
    <style>
      .cls-1 {
        fill: #46757c;
      }

      .cls-1, .cls-2, .cls-3 {
        stroke-width: 0px;
      }

      .cls-2 {
        fill: #c2eee1;
      }

      .cls-3 {
        fill: #2b3f47;
      }
    </style>
  </defs>
  <g id="Idea_2" data-name="Idea 2">
    <g>
      <path class="cls-1" d="M25.01,31.36c-.07-.18-.16-.34-.24-.49-2.03-.22-4.33-.13-6.44.09-.07.13-.14.26-.2.4L3.66,67.68c-.46,1.16-.32,2.42.38,3.45.7,1.03,1.82,1.62,3.07,1.62h11.95v-4.28l-8.37-7.21c-.98-.84-1.09-2.33-.25-3.31.84-.98,2.33-1.09,3.31-.25l5.3,4.57v-20.05c0-1.37,1.12-2.49,2.49-2.49s2.49,1.12,2.49,2.49v19.78l4.99-4.3c.98-.84,2.47-.73,3.31.25s.73,2.47-.25,3.31l-8.06,6.95v4.55h12.01c1.25,0,2.37-.59,3.07-1.62.7-1.03.84-2.29.38-3.45l-14.47-36.33Z"/>
      <path class="cls-3" d="M29.19,32.65c.79.55,1.81.95,2.87.54,1.33-.51,1.83-1.93,1.99-3.53.97.11,2.08-.07,3.25-.53,1.85-.73,3.77-2.11,5.26-3.79,1.72-1.94,2.89-4.27,2.76-6.46-.09-1.54-.93-4.23-5.31-5.64-.47-1.24-1.58-3.46-3.83-4.69-1.47-.8-3.15-1.05-5-.74C30.68,3.25,27.14.64,23.67.11c-3.99-.61-8.84,1.3-10.71,6.8-2.36-.26-4.63.5-6.41,2.19-2.34,2.23-3.37,5.66-2.61,8.73.76,3.1,3.15,5.41,6.75,6.56.3.46.99,1.99.26,5.66l-.46,2.33,2.31-.54c.43-.1.98-.21,1.6-.33L.5,66.42c-.87,2.19-.6,4.66.72,6.62s3.52,3.12,5.88,3.12h11.95v21.53c0,1.37,1.12,2.49,2.49,2.49s2.49-1.12,2.49-2.49v-21.53h12.01c2.36,0,4.56-1.17,5.88-3.12s1.59-4.42.72-6.62l-13.45-33.77ZM12.42,21.79l-.21-.15-.25-.07c-2.77-.79-4.51-2.34-5.04-4.47-.49-1.99.22-4.31,1.75-5.78.79-.75,2.48-1.9,4.95-1.16l1.58.47.36-1.61c1.05-4.71,4.6-6.35,7.66-5.88,2.7.41,5.27,2.59,4.94,6.52l-.2,2.37,2.24-.8c1.8-.64,3.32-.64,4.51,0,1.97,1.06,2.61,3.58,2.62,3.6l.21.9.89.23c2.47.64,3.76,1.68,3.85,3.1.16,2.61-3.2,6.08-6.08,7.21-.44.17-1.9.68-2.45.02l-2.93-3.56.21,4.6c.07,1.51-.04,2.32-.14,2.74-.24-.18-.52-.44-.72-.68l-.21-.25-.3-.15c-4.32-2.13-11.72-1.23-15.38-.59.41-4.74-1.44-6.33-1.86-6.63ZM39.1,71.13c-.7,1.03-1.82,1.62-3.07,1.62h-12.01v-4.55l8.06-6.95c.98-.84,1.09-2.33.25-3.31s-2.33-1.09-3.31-.25l-4.99,4.3v-19.78c0-1.37-1.12-2.49-2.49-2.49s-2.49,1.12-2.49,2.49v20.05l-5.3-4.57c-.98-.84-2.47-.73-3.31.25-.84.98-.73,2.47.25,3.31l8.37,7.21v4.28H7.11c-1.25,0-2.37-.59-3.07-1.62-.7-1.03-.84-2.29-.38-3.45l14.47-36.33c.06-.15.13-.27.2-.4,2.1-.21,4.41-.31,6.44-.09.09.15.17.31.24.49l14.47,36.33c.46,1.16.32,2.42-.38,3.45Z"/>
      <path class="cls-2" d="M29.66,29.01l.3.15.21.25c.2.24.48.5.72.68.1-.42.21-1.23.14-2.74l-.21-4.6,2.93,3.56c.54.66,2.01.15,2.45-.02,2.88-1.13,6.24-4.6,6.08-7.21-.09-1.42-1.38-2.46-3.85-3.1l-.89-.23-.21-.9s-.65-2.54-2.62-3.6c-1.19-.64-2.71-.64-4.51,0l-2.24.8.2-2.37c.33-3.93-2.24-6.11-4.94-6.52-3.06-.47-6.61,1.17-7.66,5.88l-.36,1.61-1.58-.47c-2.47-.74-4.16.41-4.95,1.16-1.53,1.47-2.24,3.78-1.75,5.78.53,2.14,2.27,3.68,5.04,4.47l.25.07.21.15c.42.3,2.27,1.89,1.86,6.63,3.66-.64,11.06-1.54,15.38.59ZM16.89,12.19l1.04-.71,1.63,13.24-2.21-5.61c-.67-1.71-2.07-5.82-.46-6.92Z"/>
      <path class="cls-3" d="M19.56,24.73l-1.63-13.24-1.04.71c-1.61,1.11-.21,5.21.46,6.92l2.21,5.61Z"/>
    </g>
  </g>
</svg>