<?xml version="1.0" encoding="UTF-8"?>
<svg id="Layer_2" data-name="Layer 2" xmlns="http://www.w3.org/2000/svg" viewBox="0 0 196.35 100.18">
  <defs>
    <style>
      .cls-1 {
        fill: #46757c;
      }

      .cls-1, .cls-2, .cls-3 {
        stroke-width: 0px;
      }

      .cls-2 {
        fill: #c2eee1;
      }

      .cls-3 {
        fill: #2b3f47;
      }
    </style>
  </defs>
  <g id="Layer_2-2" data-name="Layer 2">
    <g id="Idea_2" data-name="Idea 2">
      <g id="PINE_logo" data-name="PINE logo">
        <g>
          <path class="cls-1" d="M25.01,31.36c-.07-.18-.16-.34-.24-.49-2.03-.22-4.33-.13-6.44.09-.07.13-.14.26-.2.4L3.66,67.68c-.46,1.16-.32,2.42.38,3.45s1.82,1.62,3.07,1.62h11.95v-4.28l-8.37-7.21c-.98-.84-1.09-2.33-.25-3.31s2.33-1.09,3.31-.25l5.3,4.57v-20.05c0-1.37,1.12-2.49,2.49-2.49s2.49,1.12,2.49,2.49v19.78l4.99-4.3c.98-.84,2.47-.73,3.31.25s.73,2.47-.25,3.31l-8.06,6.95v4.55h12.01c1.25,0,2.37-.59,3.07-1.62.7-1.03.84-2.29.38-3.45l-14.47-36.33Z"/>
          <path class="cls-3" d="M29.19,32.65c.79.55,1.81.95,2.87.54,1.33-.51,1.83-1.93,1.99-3.53.97.11,2.08-.07,3.25-.53,1.85-.73,3.77-2.11,5.26-3.79,1.72-1.94,2.89-4.27,2.76-6.46-.09-1.54-.93-4.23-5.31-5.64-.47-1.24-1.58-3.46-3.83-4.69-1.47-.8-3.15-1.05-5-.74C30.68,3.25,27.14.64,23.67.11c-3.99-.61-8.84,1.3-10.71,6.8-2.36-.26-4.63.5-6.41,2.19-2.34,2.23-3.37,5.66-2.61,8.73.76,3.1,3.15,5.41,6.75,6.56.3.46.99,1.99.26,5.66l-.46,2.33,2.31-.54c.43-.1.98-.21,1.6-.33L.5,66.42c-.87,2.19-.6,4.66.72,6.62,1.32,1.96,3.52,3.12,5.88,3.12h11.95v21.53c0,1.37,1.12,2.49,2.49,2.49s2.49-1.12,2.49-2.49v-21.53h12.01c2.36,0,4.56-1.17,5.88-3.12s1.59-4.42.72-6.62l-13.45-33.77ZM12.42,21.79l-.21-.15-.25-.07c-2.77-.79-4.51-2.34-5.04-4.47-.49-1.99.22-4.31,1.75-5.78.79-.75,2.48-1.9,4.95-1.16l1.58.47.36-1.61c1.05-4.71,4.6-6.35,7.66-5.88,2.7.41,5.27,2.59,4.94,6.52l-.2,2.37,2.24-.8c1.8-.64,3.32-.64,4.51,0,1.97,1.06,2.61,3.58,2.62,3.6l.21.9.89.23c2.47.64,3.76,1.68,3.85,3.1.16,2.61-3.2,6.08-6.08,7.21-.44.17-1.9.68-2.45.02l-2.93-3.56.21,4.6c.07,1.51-.04,2.32-.14,2.74-.24-.18-.52-.44-.72-.68l-.21-.25-.3-.15c-4.32-2.13-11.72-1.23-15.38-.59.41-4.74-1.44-6.33-1.86-6.63v.02ZM39.1,71.13c-.7,1.03-1.82,1.62-3.07,1.62h-12.01v-4.55l8.06-6.95c.98-.84,1.09-2.33.25-3.31s-2.33-1.09-3.31-.25l-4.99,4.3v-19.78c0-1.37-1.12-2.49-2.49-2.49s-2.49,1.12-2.49,2.49v20.05l-5.3-4.57c-.98-.84-2.47-.73-3.31.25s-.73,2.47.25,3.31l8.37,7.21v4.28H7.11c-1.25,0-2.37-.59-3.07-1.62-.7-1.03-.84-2.29-.38-3.45l14.47-36.33c.06-.15.13-.27.2-.4,2.1-.21,4.41-.31,6.44-.09.09.15.17.31.24.49l14.47,36.33c.46,1.16.32,2.42-.38,3.45h0Z"/>
          <path class="cls-2" d="M29.66,29.01l.3.15.21.25c.2.24.48.5.72.68.1-.42.21-1.23.14-2.74l-.21-4.6,2.93,3.56c.54.66,2.01.15,2.45-.02,2.88-1.13,6.24-4.6,6.08-7.21-.09-1.42-1.38-2.46-3.85-3.1l-.89-.23-.21-.9s-.65-2.54-2.62-3.6c-1.19-.64-2.71-.64-4.51,0l-2.24.8.2-2.37c.33-3.93-2.24-6.11-4.94-6.52-3.06-.47-6.61,1.17-7.66,5.88l-.36,1.61-1.58-.47c-2.47-.74-4.16.41-4.95,1.16-1.53,1.47-2.24,3.78-1.75,5.78.53,2.14,2.27,3.68,5.04,4.47l.25.07.21.15c.42.3,2.27,1.89,1.86,6.63,3.66-.64,11.06-1.54,15.38.59v-.02ZM16.89,12.19l1.04-.71,1.63,13.24-2.21-5.61c-.67-1.71-2.07-5.82-.46-6.92Z"/>
          <path class="cls-3" d="M19.56,24.73l-1.63-13.24-1.04.71c-1.61,1.11-.21,5.21.46,6.92l2.21,5.61Z"/>
        </g>
        <g>
          <path class="cls-1" d="M87.07,70.66c0-2.52-.47-4.83-1.41-6.89-.93-2.04-2.27-3.81-3.99-5.26-1.74-1.47-3.9-2.63-6.41-3.44-2.56-.83-5.49-1.25-8.71-1.25-2.37,0-4.67.17-6.82.52-2.15.34-4.07.8-5.7,1.35-1.57.54-2.82,1.12-3.71,1.75-.67.47-.82.79-.83.85v32.93c0,.96.19,1.74.59,2.38.43.69.99,1.24,1.7,1.69.77.47,1.68.83,2.71,1.05,1.91.41,3.98.46,6.09.18.87-.12,1.71-.29,2.51-.52.79-.23,1.54-.51,2.24-.83.37-.17.7-.35,1.01-.55v-2.87c-.8-.07-1.51-.16-2.12-.26-1.03-.17-1.85-.35-2.5-.57-.83-.28-1.44-.63-1.86-1.07-.66-.69-.8-1.42-.8-1.9s.09-.89.27-1.25c.14-.27.31-.52.51-.72l.84-.83,1.07.49c.08.03.32.13.95.3.53.14,1.13.28,1.81.43.67.14,1.39.26,2.16.36.73.09,1.45.14,2.14.14,2.82,0,5.41-.35,7.7-1.05,2.22-.68,4.14-1.7,5.7-3.04,1.54-1.32,2.74-3,3.58-4.99.86-2.02,1.29-4.42,1.29-7.14ZM71.02,72.4c0,1.14-.21,2-.63,2.64-.32.48-1.08,1.28-2.59,1.28-.07,0-.21,0-.43-.02-.45-.04-.83-.16-1.15-.37l-.75-.51v-7.25c0-.13,0-.26-.02-.38l-.15-1.2,1.08-.54c.26-.13.55-.21.9-.26.26-.04.48-.05.66-.05,1.15,0,2.1.53,2.59,1.46.34.64.49,1.45.49,2.57v2.63Z"/>
          <path class="cls-3" d="M67.93,65.74c-.18,0-.4.02-.66.05-.35.05-.64.14-.9.26l-1.08.54.15,1.2c.01.12.02.25.02.38v7.25l.75.51c.32.22.7.34,1.15.37.22.02.36.02.43.02,1.51,0,2.27-.8,2.59-1.28.43-.64.63-1.5.63-2.64v-2.63c0-1.12-.16-1.93-.49-2.57-.49-.92-1.44-1.46-2.59-1.46Z"/>
          <path class="cls-1" d="M108.77,59.33c0-.86-.18-1.57-.56-2.17-.41-.65-.94-1.17-1.64-1.61-.75-.46-1.64-.82-2.66-1.05-1.07-.25-2.2-.37-3.36-.37-2.23,0-4.14.3-5.68.89-1.21.46-2.2.96-2.95,1.49v34.99c0,.86.18,1.57.55,2.17.41.65.94,1.18,1.64,1.61.75.47,1.64.82,2.66,1.05,1.07.25,2.2.37,3.36.37,2.23,0,4.14-.3,5.68-.89,1.21-.46,2.2-.96,2.95-1.49v-34.99Z"/>
          <path class="cls-1" d="M149.97,55.44c-.78-.47-1.71-.81-2.74-1.02-1.84-.36-3.73-.46-5.79-.16-.79.11-1.57.29-2.31.51-.74.23-1.44.51-2.1.84-.39.2-.76.42-1.1.65v.61l3.51,6.05c.21.36.43.74.63,1.13.32.61.47,1.17.47,1.7,0,.91-.38,1.67-1.07,2.15-.51.35-1.06.52-1.64.52h-.96l-2.73-4.55c-.72-1.2-1.42-2.34-2.08-3.41-.66-1.06-1.28-2.02-1.87-2.9-.52-.77-1.01-1.46-1.46-2.03-.38-.26-1.04-.61-2.21-.94-1.13-.33-2.4-.49-3.76-.49-1.23,0-2.4.1-3.47.3-1.05.2-1.97.46-2.74.78-.66.28-1.18.6-1.52.96-.1.11-.28.31-.28.46v34.74c0,.86.17,1.58.53,2.2.37.65.89,1.18,1.59,1.62.76.48,1.69.86,2.77,1.11,1.14.27,2.41.41,3.77.41,1.21,0,2.28-.08,3.2-.25.93-.17,1.75-.38,2.44-.61.67-.23,1.23-.47,1.67-.72.16-.09.31-.18.45-.26v-.41l-4.08-6.59c-.32-.51-.58-.95-.77-1.3-.32-.58-.49-1.21-.49-1.84s.18-1.21.52-1.69c.29-.42.88-.94,1.99-1.07l1.09-.13.57.94c.54.88,1.09,1.82,1.67,2.81.57.97,1.19,2,1.85,3.07.65,1.06,1.38,2.18,2.16,3.34.71,1.06,1.53,2.17,2.41,3.32.27.14.58.28.93.4.52.19,1.09.35,1.7.5.59.14,1.24.25,1.92.33,1.82.2,3.61.13,5.26-.14.95-.16,1.79-.42,2.5-.77.62-.31,1.1-.7,1.46-1.19.31-.42.46-.96.46-1.64v-32.83c0-1.14-.21-2.07-.63-2.77-.44-.73-1-1.3-1.72-1.74Z"/>
          <path class="cls-1" d="M192.82,91.89c.08-.63.12-1.23.12-1.77,0-.89-.06-1.68-.17-2.36-.11-.67-.25-1.26-.42-1.77-.16-.48-.34-.91-.54-1.26-.07-.12-.14-.25-.21-.36h-8.81c-1.16,0-2.2.02-3.09.07-.88.04-1.68.11-2.38.18-.67.07-1.28.17-1.81.3-.55.13-1.1.28-1.63.45l-.7.22-.64-.36c-.73-.4-1.04-.95-1.18-1.34-.12-.33-.18-.7-.18-1.08,0-.46.16-1.34,1.22-2.03.49-.32,1.16-.56,2.13-.78.82-.18,1.89-.32,3.26-.43,1.33-.11,3.02-.16,5.01-.16h6.5c.18-.42.34-.9.48-1.44.24-.96.36-2.07.36-3.31,0-.4-.03-.84-.1-1.29-.07-.49-.17-.97-.28-1.45-.11-.44-.24-.87-.4-1.27-.02-.05-.04-.1-.06-.15h-16.21l-.5-.49c-.26-.26-.58-.73-.58-1.49v-.28c0-1.35.92-2.71,2.98-2.71h13.97c1.1,0,1.89-.35,2.49-1.09.66-.83,1.01-2.3,1.01-4.24,0-.47-.04-.99-.12-1.54-.08-.58-.2-1.16-.35-1.73-.14-.55-.32-1.08-.54-1.58-.09-.2-.18-.4-.27-.58h-19c-5.14,0-8.98.25-11.42.73-1.75.35-2.33.75-2.48.88v32.85c0,1.24.2,2.3.6,3.14.4.85.93,1.52,1.61,2.07.7.56,1.53.98,2.49,1.25,1.02.29,2.15.44,3.35.44h25.13c.13-.21.26-.43.38-.67.25-.52.46-1.09.62-1.68.17-.62.29-1.25.37-1.88Z"/>
          <path class="cls-3" d="M196.13,87.2c-.14-.84-.33-1.61-.55-2.29-.23-.69-.5-1.31-.81-1.86-.27-.49-.56-.94-.84-1.36l-.51-.74h-1.11c.3-.64.55-1.37.75-2.17.31-1.23.47-2.62.47-4.14,0-.57-.05-1.17-.14-1.79-.09-.58-.2-1.17-.34-1.75-.14-.59-.32-1.16-.54-1.7-.16-.42-.34-.8-.52-1.14.81-.4,1.51-.97,2.1-1.7,1.18-1.48,1.76-3.56,1.76-6.37,0-.63-.05-1.31-.16-2.03-.1-.69-.24-1.4-.42-2.08-.18-.72-.42-1.42-.71-2.09-.29-.66-.6-1.28-.95-1.84l-.5-.8h-20.95c-5.43,0-9.39.26-12.08.79-3.34.66-5.08,1.98-5.19,3.89-.1-.2-.18-.41-.29-.6-.72-1.21-1.69-2.19-2.89-2.91-1.12-.68-2.42-1.16-3.84-1.44-2.21-.43-4.5-.54-6.93-.19-.96.14-1.91.35-2.82.63-.93.28-1.82.64-2.65,1.06-.87.44-1.66.96-2.36,1.55l-.6.51v.34c-.45-.64-.87-1.21-1.26-1.71l-.28-.28c-.85-.68-2.01-1.22-3.54-1.65-1.44-.41-3.02-.62-4.7-.62-1.44,0-2.82.12-4.09.36-1.29.24-2.45.57-3.43.99-1.08.46-1.97,1.03-2.64,1.71-.74.76-1.06,1.52-1.18,2.15-.1-.2-.19-.4-.31-.59-.68-1.08-1.6-1.99-2.73-2.69-1.07-.66-2.31-1.16-3.69-1.48-1.32-.31-2.71-.46-4.13-.46-2.65,0-4.97.38-6.9,1.12-1.95.75-3.44,1.59-4.55,2.56l-.58.51v7.01c-1.13-2.32-2.68-4.34-4.66-6.01-2.08-1.75-4.62-3.12-7.56-4.08-2.9-.94-6.18-1.42-9.76-1.42-2.55,0-5.02.19-7.36.56-2.34.37-4.44.87-6.26,1.49-1.91.65-3.41,1.37-4.58,2.2-1.5,1.06-2.26,2.28-2.26,3.62v32.93c0,1.59.37,2.99,1.1,4.17.7,1.13,1.65,2.07,2.8,2.79,1.1.68,2.37,1.18,3.78,1.48,1.34.29,2.74.44,4.17.44,1.01,0,2.05-.07,3.08-.21,1.04-.14,2.05-.35,3-.62.95-.28,1.87-.62,2.72-1.01.9-.42,1.7-.91,2.37-1.47l.61-.51v-6.01c2.8-.07,5.41-.47,7.76-1.19,2.68-.82,5-2.07,6.92-3.72,1.72-1.48,3.09-3.32,4.11-5.45v11.58c0,1.5.36,2.83,1.07,3.97.68,1.08,1.6,1.99,2.73,2.69,1.07.66,2.31,1.16,3.69,1.48,1.32.3,2.71.46,4.13.46,2.65,0,4.97-.38,6.9-1.12,1.95-.75,3.44-1.59,4.55-2.56l.58-.51v-.97c.05.11.1.22.16.32.64,1.11,1.55,2.05,2.71,2.79,1.08.69,2.37,1.21,3.82,1.55,1.39.33,2.92.5,4.55.5,1.41,0,2.69-.1,3.81-.3,1.1-.2,2.09-.45,2.93-.74.87-.3,1.62-.63,2.25-.98.57-.33,1.05-.61,1.42-.86l.76-.5v-.44c.34.45.69.91,1.05,1.38l.19.24.26.16c.51.31,1.12.6,1.8.84.63.23,1.32.43,2.05.61.73.18,1.52.31,2.35.4,2.13.23,4.22.15,6.18-.17,1.28-.21,2.45-.57,3.46-1.07,1.11-.55,2.02-1.3,2.7-2.24.61-.84.96-1.84,1.06-2.96.05.11.08.24.14.35.62,1.3,1.48,2.4,2.55,3.27,1.05.85,2.29,1.47,3.68,1.87,1.32.38,2.76.57,4.28.57h26.72l.51-.56c.52-.58.97-1.26,1.34-2.03.34-.71.63-1.48.84-2.28.2-.76.36-1.54.46-2.31.1-.78.15-1.52.15-2.21,0-1.08-.07-2.06-.21-2.92ZM100.14,96.7c-1.16,0-2.29-.12-3.36-.37-1.01-.23-1.91-.59-2.66-1.05-.7-.43-1.23-.96-1.64-1.61-.37-.59-.55-1.3-.55-2.17v-34.99c.75-.53,1.74-1.03,2.95-1.49,1.54-.59,3.45-.89,5.68-.89,1.16,0,2.29.12,3.36.37,1.01.23,1.91.59,2.66,1.05.7.43,1.23.96,1.64,1.61.37.6.56,1.31.56,2.17v34.99c-.75.53-1.74,1.03-2.95,1.49-1.54.59-3.46.89-5.68.89ZM82.2,82.79c-1.56,1.34-3.48,2.37-5.7,3.04-2.29.7-4.88,1.05-7.7,1.05-.69,0-1.41-.05-2.14-.14-.77-.1-1.49-.22-2.16-.36-.68-.14-1.28-.28-1.81-.43-.63-.17-.88-.27-.95-.3l-1.07-.49-.84.83c-.2.2-.37.44-.51.72-.18.36-.27.77-.27,1.25s.14,1.21.8,1.9c.42.44,1.03.79,1.86,1.07.65.22,1.47.4,2.5.57.61.1,1.32.18,2.12.26v2.87c-.3.19-.64.38-1.01.55-.7.32-1.45.6-2.24.83-.79.23-1.64.4-2.51.52-2.11.28-4.19.23-6.09-.18-1.03-.22-1.94-.58-2.71-1.05-.72-.44-1.27-.99-1.7-1.69-.4-.64-.59-1.42-.59-2.38v-32.93c0-.06.16-.38.83-.85.89-.63,2.13-1.22,3.71-1.75,1.63-.55,3.55-1.01,5.7-1.35,2.16-.34,4.45-.52,6.82-.52,3.23,0,6.16.42,8.71,1.25,2.52.82,4.67,1.98,6.41,3.44,1.72,1.45,3.06,3.22,3.99,5.26.93,2.06,1.41,4.37,1.41,6.89,0,2.71-.43,5.12-1.29,7.14-.84,1.99-2.04,3.67-3.58,4.99ZM152.32,92.78c0,.68-.15,1.21-.46,1.64-.36.49-.83.88-1.46,1.19-.71.35-1.55.61-2.5.77-1.65.27-3.44.34-5.26.14-.68-.07-1.33-.18-1.92-.33-.61-.15-1.18-.32-1.7-.5-.35-.13-.66-.26-.93-.4-.89-1.14-1.7-2.26-2.41-3.32-.78-1.16-1.51-2.28-2.16-3.34-.66-1.08-1.28-2.1-1.85-3.07-.58-.99-1.14-1.92-1.67-2.81l-.57-.94-1.09.13c-1.11.13-1.69.65-1.99,1.07-.34.48-.52,1.07-.52,1.69s.17,1.26.49,1.84c.2.36.45.79.77,1.3l4.08,6.59v.41c-.14.08-.29.17-.45.26-.44.25-1,.49-1.67.72-.69.24-1.51.44-2.44.61-.91.17-1.99.25-3.2.25-1.36,0-2.63-.14-3.77-.41-1.08-.25-2.01-.63-2.77-1.11-.7-.45-1.22-.98-1.59-1.62-.36-.62-.53-1.34-.53-2.2v-34.74c0-.15.17-.35.28-.46.35-.36.86-.68,1.52-.96.76-.32,1.68-.58,2.74-.78,1.07-.2,2.24-.3,3.47-.3,1.36,0,2.63.16,3.76.49,1.17.33,1.84.68,2.21.94.45.58.93,1.26,1.46,2.03.59.87,1.21,1.84,1.87,2.9.67,1.07,1.36,2.2,2.08,3.41l2.73,4.55h.96c.58,0,1.13-.17,1.64-.52.69-.47,1.07-1.23,1.07-2.15,0-.53-.15-1.09-.47-1.7-.2-.39-.42-.77-.63-1.13l-3.51-6.05v-.61c.34-.24.71-.46,1.1-.65.66-.33,1.36-.62,2.1-.84.75-.23,1.52-.4,2.31-.51,2.06-.3,3.95-.2,5.79.16,1.04.2,1.96.55,2.74,1.02.72.44,1.29,1,1.72,1.74.42.7.63,1.63.63,2.77v32.83ZM191.46,96.11h-25.13c-1.2,0-2.33-.15-3.35-.44-.95-.27-1.79-.69-2.49-1.25-.68-.55-1.21-1.22-1.61-2.07-.4-.84-.6-1.9-.6-3.14v-32.85c.15-.14.73-.54,2.48-.88,2.44-.49,6.29-.73,11.42-.73h19c.09.19.18.38.27.58.22.5.4,1.04.54,1.58.15.57.26,1.16.35,1.73.08.56.12,1.08.12,1.54,0,1.95-.35,3.41-1.01,4.24-.6.75-1.39,1.09-2.49,1.09h-13.97c-2.06,0-2.98,1.36-2.98,2.71v.28c0,.76.32,1.23.58,1.49l.5.49h16.21s.04.1.06.15c.16.4.29.83.4,1.27.12.47.21.96.28,1.45.07.46.1.89.1,1.29,0,1.24-.12,2.35-.36,3.31-.14.54-.3,1.02-.48,1.44h-6.5c-1.99,0-3.68.05-5.01.16-1.37.11-2.44.25-3.26.43-.96.21-1.64.46-2.13.78-1.06.69-1.22,1.57-1.22,2.03,0,.38.06.75.18,1.08.14.39.45.94,1.18,1.34l.64.36.7-.22c.53-.17,1.08-.32,1.63-.45.53-.12,1.14-.22,1.81-.3.7-.08,1.5-.14,2.38-.18.89-.04,1.92-.07,3.09-.07h8.81c.07.12.14.24.21.36.2.36.38.78.54,1.26.17.51.31,1.1.42,1.77.11.67.17,1.47.17,2.36,0,.54-.04,1.14-.12,1.77-.08.63-.21,1.26-.37,1.88-.16.59-.37,1.16-.62,1.68-.12.24-.24.46-.38.67Z"/>
        </g>
      </g>
    </g>
  </g>
</svg>